<svg xmlns="http://www.w3.org/2000/svg" viewBox="0 0 376.58 140.03"><defs><style>.cls-1{fill:#1a1a1a;}.cls-2{fill:#00aaa0;}.cls-3{fill:#00c864;}.cls-4{fill:#fff;}</style></defs><title>pillcap_ebot</title><g id="Capa_2" data-name="Capa 2"><g id="Capa_2-2" data-name="Capa 2"><path class="cls-1" d="M368.93,35.24V21.38H334.17V35.24h-4.41v5.59c-4.21-3.92-11.08-8-21.5-8-11.61,0-18.84,5.09-22.85,9.36l0,0,0,0c-.61.67-1.16,1.34-1.69,2-.9-16-12.87-26.58-30.37-26.58H216.72v30.6H175.14a30.21,30.21,0,0,0-3.81-5.41c-5.77-6.5-14.16-10.07-23.63-10.07C135,32.81,125.17,39,120,49.37v-11A38.38,38.38,0,0,0,81.67,0H38.33A38.38,38.38,0,0,0,0,38.33V81.67A38.38,38.38,0,0,0,38.33,120H81.67a38.32,38.32,0,0,0,32.61-18.23h262.3V69.35h-7.65V66.58h7.65V35.24Z"/><rect class="cls-2" x="10.58" y="10.58" width="98.83" height="98.83" rx="28" ry="28"/><path class="cls-1" d="M81.67,13.33a25,25,0,0,1,25,25V81.67a25,25,0,0,1-25,25H38.33a25,25,0,0,1-25-25V38.33a25,25,0,0,1,25-25H81.67m0-3.33H38.33A28.33,28.33,0,0,0,10,38.33V81.67A28.33,28.33,0,0,0,38.33,110H81.67A28.33,28.33,0,0,0,110,81.67V38.33A28.33,28.33,0,0,0,81.67,10Z"/><path class="cls-1" d="M78.54,88.54h0a6.67,6.67,0,0,0-6.67-6.67H48.11a6.67,6.67,0,0,0-6.67,6.67h0a2.71,2.71,0,0,1-2.71,2.71h-.2a16,16,0,0,1-16-16V41.67A18.75,18.75,0,0,1,41.25,22.92h37.5A18.75,18.75,0,0,1,97.5,41.67V75.22a16,16,0,0,1-16,16h-.22A2.71,2.71,0,0,1,78.54,88.54Z"/><circle class="cls-1" cx="39.9" cy="60" r="8.33"/><path class="cls-3" d="M39.9,70a10,10,0,1,1,10-10A10,10,0,0,1,39.9,70Zm0-16.67A6.67,6.67,0,1,0,46.56,60,6.67,6.67,0,0,0,39.9,53.33Z"/><path class="cls-1" d="M71.77,60a8.33,8.33,0,0,1,16.67,0"/><path class="cls-3" d="M90.1,60H86.77a6.67,6.67,0,1,0-13.33,0H70.1a10,10,0,1,1,20,0Z"/><path class="cls-4" d="M140.5,72.33c0,4,3.06,7.56,8.55,7.56,5.13,0,7.38-1.44,10-4l8.82,8.82c-5,4.95-9.81,7.65-18.81,7.65-10.71,0-23-3.87-23-24.75,0-15.84,9-24.75,21.69-24.75,14,0,21.78,10.26,21.78,22.95v6.57Zm13.59-13.59c-.9-2.07-2.88-3.78-6.39-3.78s-5.49,1.71-6.39,3.78a8.44,8.44,0,0,0-.81,3.78h14.4A8.44,8.44,0,0,0,154.09,58.74Z"/><path class="cls-4" d="M181.81,72.15V58.29h29.52V72.15Z"/><path class="cls-4" d="M254.62,91.77h-27.9V27.69h26.55c13.32,0,20.43,7.47,20.43,18.54a15.43,15.43,0,0,1-7,12.69c2.61,1.62,7.92,5,7.92,13.95C274.6,85.11,266.05,91.77,254.62,91.77Zm-2.34-49.95h-9.81V52.26h9.81c4.32,0,5.67-2.7,5.67-5.22S256.6,41.82,252.28,41.82Zm.81,24.57H242.47V77.64h10.62c4.32,0,5.76-3,5.76-5.67S257.41,66.39,253.09,66.39Z"/><path class="cls-4" d="M323.83,86.1c-2.88,3.06-7.74,6.21-15.57,6.21s-12.69-3.15-15.57-6.21c-4-4.41-5.31-9-5.31-18.54s1.26-14.13,5.31-18.54c2.88-3.06,7.74-6.21,15.57-6.21S321,46,323.83,49c4,4.41,5.31,9.09,5.31,18.54S327.88,81.69,323.83,86.1ZM312.22,57.48a6.48,6.48,0,0,0-7.92,0c-1.89,1.89-2.16,5.31-2.16,10.08s.27,8.19,2.16,10.08a6.48,6.48,0,0,0,7.92,0c1.89-1.89,2.16-5.31,2.16-10.08S314.11,59.37,312.22,57.48Z"/><path class="cls-4" d="M359.2,91.77c-10.71,0-15-7.65-15-14.31V56.58h-4.41V45.24h4.41V31.38h14.76V45.24h7.65V56.58h-7.65v19.8a2.66,2.66,0,0,0,3,3h4.68V91.77Z"/><path class="cls-1" d="M374.36,116.1a8.47,8.47,0,0,0-6.19-2.5h-9.29v9.49l-3.45-9.49h-7.2l-2.35,6.45a8.85,8.85,0,0,0-2.93-4.64,9.1,9.1,0,0,0-5.81-1.94,8.93,8.93,0,0,0-6.54,2.66c-2.49,2.49-2.49,5.63-2.49,8.16,0,0,0,1.33,0,1.76h-3V113.6h-9.88V126h-4.12V113.6H292.92v2.17a8.55,8.55,0,0,0-5.86-2.17H278a10.26,10.26,0,0,0-15.68-1.39L252,122.51A10.27,10.27,0,0,0,266.52,137s11-11,11.25-11.4v9.88h91v-5.7a8.36,8.36,0,0,0,5.61-2.48,8.19,8.19,0,0,0,0-11.22Z"/><path class="cls-2" d="M254.11,124.62a7.28,7.28,0,0,0,0,10.3h0a7.28,7.28,0,0,0,10.3,0l5.15-5.15-10.3-10.3Z"/><path class="cls-3" d="M274.71,114.32h0a7.28,7.28,0,0,0-10.3,0l-5.15,5.15,10.3,10.3,5.15-5.15A7.28,7.28,0,0,0,274.71,114.32Z"/><path class="cls-4" d="M265,120.33l-.2-.2a3.49,3.49,0,0,0-4.34-.46l-.71-.71-1,1,.71.71a3.48,3.48,0,0,0,4.81,4.81l3.09,3.09a2.15,2.15,0,0,1-2.43-.43l-.2-.2-.94.94.2.2a3.49,3.49,0,0,0,4.34.46l.71.71,1-1-.71-.71a3.48,3.48,0,0,0-4.81-4.81l-3.09-3.09a2.15,2.15,0,0,1,2.43.43l.2.2Zm2.93,4.81a2.15,2.15,0,0,1,.43,2.43l-2.85-2.85A2.15,2.15,0,0,1,268,125.13Zm-7.1-1a2.15,2.15,0,0,1-.43-2.43l2.85,2.85A2.15,2.15,0,0,1,260.86,124.1Z"/><path class="cls-4" d="M287.07,126.83h-2.39v5.68h-3.92V116.58h6.31a5.13,5.13,0,1,1,0,10.25Zm-.18-6.74h-2.22v3.22h2.22a1.61,1.61,0,1,0,0-3.22Z"/><path class="cls-4" d="M295.9,132.52V116.58h3.92v15.93Z"/><path class="cls-4" d="M304.16,132.52V116.58h3.92V129h6.69v3.49Z"/><path class="cls-4" d="M318.17,132.52V116.58h3.92V129h6.69v3.49Z"/><path class="cls-4" d="M337.12,132.65a5.93,5.93,0,0,1-4.43-1.79c-1.68-1.68-1.61-3.92-1.61-6.31s-.07-4.63,1.61-6.31a5.93,5.93,0,0,1,4.43-1.79,5.76,5.76,0,0,1,6,5.19h-4a2,2,0,0,0-2-1.7,1.9,1.9,0,0,0-1.54.67c-.36.47-.6,1-.6,3.94s.25,3.47.6,3.94a1.9,1.9,0,0,0,1.54.67,2,2,0,0,0,2-1.7h4A5.76,5.76,0,0,1,337.12,132.65Z"/><path class="cls-4" d="M355,132.52l-.74-2.37h-4.9l-.78,2.37h-4.1l5.8-15.93h3l5.8,15.93Zm-3.11-9.89-1.43,4.25h2.77Z"/><path class="cls-4" d="M368.16,126.83h-2.39v5.68h-3.92V116.58h6.31a5.13,5.13,0,1,1,0,10.25ZM368,120.1h-2.22v3.22H368a1.61,1.61,0,1,0,0-3.22Z"/><path class="cls-1" d="M124.33,131.55a4.1,4.1,0,0,1-2.91,1.1,3.53,3.53,0,0,1-2.69-1v4.77h-3.67V120.48h3.56v1a3.56,3.56,0,0,1,2.77-1.12,4.15,4.15,0,0,1,2.93,1.1c1.19,1.19,1.12,3.29,1.12,5.06S125.52,130.37,124.33,131.55Zm-4.07-7.9c-1.37,0-1.52,1.1-1.52,2.84s.16,2.84,1.52,2.84,1.52-1.1,1.52-2.84S121.63,123.65,120.26,123.65Z"/><path class="cls-1" d="M135.39,124.28a1.7,1.7,0,0,0-1.32-.63,1.48,1.48,0,0,0-1.48,1.66v7.21h-3.67v-12h3.58v1a4.17,4.17,0,0,1,2.84-1.12,3.57,3.57,0,0,1,2.82,1.12Z"/><path class="cls-1" d="M148.61,131.11a5.62,5.62,0,0,1-7.74,0c-1-1.1-1.32-2.24-1.32-4.61s.31-3.51,1.32-4.61a5.62,5.62,0,0,1,7.74,0c1,1.1,1.32,2.26,1.32,4.61S149.62,130,148.61,131.11ZM145.73,124a1.61,1.61,0,0,0-2,0c-.47.47-.54,1.32-.54,2.51s.07,2,.54,2.51a1.61,1.61,0,0,0,2,0c.47-.47.54-1.32.54-2.51S146.2,124.46,145.73,124Z"/><path class="cls-1" d="M159,132.52h-2.8l-4.43-12h3.85l2,6.24,2-6.24h3.85Z"/><path class="cls-1" d="M166,119.25v-2.8h3.67v2.8Zm0,13.27V120.95h3.67v11.57Z"/><path class="cls-1" d="M179.92,132.52v-1a3.56,3.56,0,0,1-2.77,1.12,4.15,4.15,0,0,1-2.93-1.1c-1.19-1.19-1.12-3.29-1.12-5.06s-.07-3.87,1.12-5.06a4.1,4.1,0,0,1,2.91-1.1,3.53,3.53,0,0,1,2.69,1v-4.77h3.67v15.93Zm-1.63-8.86c-1.37,0-1.52,1.1-1.52,2.84s.16,2.84,1.52,2.84,1.52-1.1,1.52-2.84S179.65,123.65,178.28,123.65Z"/><path class="cls-1" d="M190.44,127.68a1.93,1.93,0,0,0,2.13,1.88,3,3,0,0,0,2.48-1l2.19,2.19a5.85,5.85,0,0,1-4.68,1.9c-2.66,0-5.73-1-5.73-6.15,0-3.94,2.24-6.15,5.39-6.15,3.49,0,5.42,2.55,5.42,5.71v1.63Zm3.38-3.38a1.81,1.81,0,0,0-3.18,0,2.1,2.1,0,0,0-.2.94H194A2.1,2.1,0,0,0,193.81,124.3Z"/><path class="cls-1" d="M207.4,132.52v-1a3.56,3.56,0,0,1-2.77,1.12,4.15,4.15,0,0,1-2.93-1.1c-1.19-1.19-1.12-3.29-1.12-5.06s-.07-3.87,1.12-5.06a4.1,4.1,0,0,1,2.91-1.1,3.53,3.53,0,0,1,2.69,1v-4.77H211v15.93Zm-1.63-8.86c-1.37,0-1.52,1.1-1.52,2.84s.16,2.84,1.52,2.84,1.52-1.1,1.52-2.84S207.13,123.65,205.76,123.65Z"/><path class="cls-1" d="M230.2,131.55a4.15,4.15,0,0,1-2.93,1.1,3.56,3.56,0,0,1-2.77-1.12v1h-3.56V116.58h3.67v4.77a3.53,3.53,0,0,1,2.69-1,4.1,4.1,0,0,1,2.91,1.1c1.19,1.19,1.12,3.29,1.12,5.06S231.39,130.37,230.2,131.55Zm-4.07-7.9c-1.37,0-1.52,1.1-1.52,2.84s.16,2.84,1.52,2.84,1.52-1.1,1.52-2.84S227.49,123.65,226.13,123.65Z"/><path class="cls-1" d="M240.09,133.95a4.16,4.16,0,0,1-.94,1.59,3.48,3.48,0,0,1-2.71,1h-1.39v-3.31h.78a1.08,1.08,0,0,0,1.23-.9l.34-1-4-10.85h3.85l2,6.24,1.95-6.24h3.85Z"/></g></g></svg>