<svg xmlns="http://www.w3.org/2000/svg" viewBox="0 0 427.43 140.03"><defs><style>.cls-1{fill:#1a1a1a;}.cls-2{fill:#00aaa0;}.cls-3,.cls-5{fill:#00c864;}.cls-4{fill:#fff;}.cls-5{stroke:#1a1a1a;stroke-miterlimit:10;stroke-width:10px;}</style></defs><title>pillcap_echat</title><g id="Capa_2" data-name="Capa 2"><g id="Capa_2-2" data-name="Capa 2"><path class="cls-1" d="M425.21,116.1a8.47,8.47,0,0,0-6.19-2.5h-9.29v9.49l-3.45-9.49h-7.2l-2.35,6.45a8.85,8.85,0,0,0-2.93-4.64,9.1,9.1,0,0,0-5.81-1.94,8.93,8.93,0,0,0-6.54,2.66c-2.49,2.49-2.49,5.63-2.49,8.16,0,0,0,1.33,0,1.76h-3V113.6H366V126h-4.12V113.6H343.77v2.17a8.55,8.55,0,0,0-5.86-2.17h-9.09a10.26,10.26,0,0,0-15.68-1.39l-10.3,10.3A10.27,10.27,0,0,0,317.37,137s11-11,11.25-11.4v9.88h91v-5.7a8.36,8.36,0,0,0,5.61-2.48,8.19,8.19,0,0,0,0-11.22Z"/><path class="cls-2" d="M305,124.62a7.28,7.28,0,0,0,0,10.3h0a7.28,7.28,0,0,0,10.3,0l5.15-5.15-10.3-10.3Z"/><path class="cls-3" d="M325.56,114.32h0a7.28,7.28,0,0,0-10.3,0l-5.15,5.15,10.3,10.3,5.15-5.15A7.28,7.28,0,0,0,325.56,114.32Z"/><path class="cls-4" d="M315.88,120.33l-.2-.2a3.49,3.49,0,0,0-4.34-.46l-.71-.71-1,1,.71.71a3.48,3.48,0,0,0,4.81,4.81l3.09,3.09a2.15,2.15,0,0,1-2.43-.43l-.2-.2-.94.94.2.2a3.49,3.49,0,0,0,4.34.46l.71.71,1-1-.71-.71a3.48,3.48,0,0,0-4.81-4.81l-3.09-3.09a2.15,2.15,0,0,1,2.43.43l.2.2Zm2.93,4.81a2.15,2.15,0,0,1,.43,2.43l-2.85-2.85A2.15,2.15,0,0,1,318.81,125.13Zm-7.1-1a2.15,2.15,0,0,1-.43-2.43l2.85,2.85A2.15,2.15,0,0,1,311.71,124.1Z"/><path class="cls-4" d="M337.92,126.83h-2.39v5.68h-3.92V116.58h6.31a5.13,5.13,0,1,1,0,10.25Zm-.18-6.74h-2.22v3.22h2.22a1.61,1.61,0,1,0,0-3.22Z"/><path class="cls-4" d="M346.75,132.52V116.58h3.92v15.93Z"/><path class="cls-4" d="M355,132.52V116.58h3.92V129h6.69v3.49Z"/><path class="cls-4" d="M369,132.52V116.58h3.92V129h6.69v3.49Z"/><path class="cls-4" d="M388,132.65a5.93,5.93,0,0,1-4.43-1.79c-1.68-1.68-1.61-3.92-1.61-6.31s-.07-4.63,1.61-6.31a5.93,5.93,0,0,1,4.43-1.79,5.76,5.76,0,0,1,6,5.19h-4a2,2,0,0,0-2-1.7,1.9,1.9,0,0,0-1.54.67c-.36.47-.6,1-.6,3.94s.25,3.47.6,3.94a1.9,1.9,0,0,0,1.54.67,2,2,0,0,0,2-1.7h4A5.76,5.76,0,0,1,388,132.65Z"/><path class="cls-4" d="M405.88,132.52l-.74-2.37h-4.9l-.78,2.37h-4.1l5.8-15.93h3l5.8,15.93Zm-3.11-9.89-1.43,4.25h2.77Z"/><path class="cls-4" d="M419,126.83h-2.39v5.68H412.7V116.58H419a5.13,5.13,0,1,1,0,10.25Zm-.18-6.74h-2.22v3.22h2.22a1.61,1.61,0,1,0,0-3.22Z"/><path class="cls-1" d="M175.18,131.55a4.1,4.1,0,0,1-2.91,1.1,3.53,3.53,0,0,1-2.69-1v4.77h-3.67V120.48h3.56v1a3.56,3.56,0,0,1,2.77-1.12,4.15,4.15,0,0,1,2.93,1.1c1.19,1.19,1.12,3.29,1.12,5.06S176.37,130.37,175.18,131.55Zm-4.07-7.9c-1.37,0-1.52,1.1-1.52,2.84s.16,2.84,1.52,2.84,1.52-1.1,1.52-2.84S172.48,123.65,171.11,123.65Z"/><path class="cls-1" d="M186.24,124.28a1.7,1.7,0,0,0-1.32-.63,1.48,1.48,0,0,0-1.48,1.66v7.21h-3.67v-12h3.58v1a4.17,4.17,0,0,1,2.84-1.12,3.57,3.57,0,0,1,2.82,1.12Z"/><path class="cls-1" d="M199.46,131.11a5.62,5.62,0,0,1-7.74,0c-1-1.1-1.32-2.24-1.32-4.61s.31-3.51,1.32-4.61a5.62,5.62,0,0,1,7.74,0c1,1.1,1.32,2.26,1.32,4.61S200.47,130,199.46,131.11ZM196.58,124a1.61,1.61,0,0,0-2,0c-.47.47-.54,1.32-.54,2.51s.07,2,.54,2.51a1.61,1.61,0,0,0,2,0c.47-.47.54-1.32.54-2.51S197,124.46,196.58,124Z"/><path class="cls-1" d="M209.87,132.52h-2.8l-4.43-12h3.85l2,6.24,2-6.24h3.85Z"/><path class="cls-1" d="M216.81,119.25v-2.8h3.67v2.8Zm0,13.27V120.95h3.67v11.57Z"/><path class="cls-1" d="M230.77,132.52v-1a3.56,3.56,0,0,1-2.77,1.12,4.15,4.15,0,0,1-2.93-1.1c-1.19-1.19-1.12-3.29-1.12-5.06s-.07-3.87,1.12-5.06a4.1,4.1,0,0,1,2.91-1.1,3.53,3.53,0,0,1,2.69,1v-4.77h3.67v15.93Zm-1.63-8.86c-1.37,0-1.52,1.1-1.52,2.84s.16,2.84,1.52,2.84,1.52-1.1,1.52-2.84S230.5,123.65,229.13,123.65Z"/><path class="cls-1" d="M241.29,127.68a1.93,1.93,0,0,0,2.13,1.88,3,3,0,0,0,2.48-1l2.19,2.19a5.85,5.85,0,0,1-4.68,1.9c-2.66,0-5.73-1-5.73-6.15,0-3.94,2.24-6.15,5.39-6.15,3.49,0,5.42,2.55,5.42,5.71v1.63Zm3.38-3.38a1.81,1.81,0,0,0-3.18,0,2.1,2.1,0,0,0-.2.94h3.58A2.1,2.1,0,0,0,244.66,124.3Z"/><path class="cls-1" d="M258.25,132.52v-1a3.56,3.56,0,0,1-2.77,1.12,4.15,4.15,0,0,1-2.93-1.1c-1.19-1.19-1.12-3.29-1.12-5.06s-.07-3.87,1.12-5.06a4.1,4.1,0,0,1,2.91-1.1,3.53,3.53,0,0,1,2.69,1v-4.77h3.67v15.93Zm-1.63-8.86c-1.37,0-1.52,1.1-1.52,2.84s.16,2.84,1.52,2.84,1.52-1.1,1.52-2.84S258,123.65,256.61,123.65Z"/><path class="cls-1" d="M281,131.55a4.15,4.15,0,0,1-2.93,1.1,3.56,3.56,0,0,1-2.77-1.12v1h-3.56V116.58h3.67v4.77a3.53,3.53,0,0,1,2.69-1,4.1,4.1,0,0,1,2.91,1.1c1.19,1.19,1.12,3.29,1.12,5.06S282.24,130.37,281,131.55Zm-4.07-7.9c-1.37,0-1.52,1.1-1.52,2.84s.16,2.84,1.52,2.84,1.52-1.1,1.52-2.84S278.34,123.65,277,123.65Z"/><path class="cls-1" d="M290.94,133.95a4.16,4.16,0,0,1-.94,1.59,3.48,3.48,0,0,1-2.71,1h-1.39v-3.31h.78a1.08,1.08,0,0,0,1.23-.9l.34-1-4-10.85h3.85l2,6.24,1.95-6.24h3.85Z"/><path class="cls-1" d="M419.78,35.51V21.65H385V35.51h-4.41v4.73c-5.37-4.64-13.14-7.16-22.85-7.16-9.18,0-16.9,1.6-24.71,9.41l-1.56,1.56a24.43,24.43,0,0,0-1.56-2.18c-4.6-5.67-11.5-8.79-19.42-8.79h-.62V18H275.13V28.74C269,21.52,259.88,17.42,249,17.42a34,34,0,0,0-24.89,10.13c-6.36,6.36-8.42,13.73-9.09,21H175.14a30.2,30.2,0,0,0-3.81-5.41c-5.77-6.5-14.16-10.07-23.63-10.07-12.66,0-22.53,6.23-27.7,16.56V35.83A35.87,35.87,0,0,0,84.17,0H35.83A35.87,35.87,0,0,0,0,35.83V72.08a35.87,35.87,0,0,0,35.83,35.83H51.39A23.78,23.78,0,0,0,72.08,120H95.83V106a35.62,35.62,0,0,0,8-3.93H427.43V69.62h-7.65V66.85h7.65V35.51Z"/><path class="cls-2" d="M108.33,35.83V72.08A24.17,24.17,0,0,1,84.17,96.25h0v12.08H72.08A12.08,12.08,0,0,1,60,96.25H35.83A24.17,24.17,0,0,1,11.67,72.08V35.83A24.17,24.17,0,0,1,35.83,11.67H84.17A24.17,24.17,0,0,1,108.33,35.83Z"/><path class="cls-1" d="M85.83,110H72.08A13.77,13.77,0,0,1,58.43,97.92H35.83A25.86,25.86,0,0,1,10,72.08V35.83A25.86,25.86,0,0,1,35.83,10H84.17A25.86,25.86,0,0,1,110,35.83V72.08A25.87,25.87,0,0,1,85.83,97.86Zm-50-96.67a22.53,22.53,0,0,0-22.5,22.5V72.08a22.53,22.53,0,0,0,22.5,22.5H61.67v1.67a10.43,10.43,0,0,0,10.42,10.42H82.5V94.58h1.67a22.53,22.53,0,0,0,22.5-22.5V35.83a22.53,22.53,0,0,0-22.5-22.5Z"/><path class="cls-5" d="M84.17,96.25"/><polygon class="cls-1" points="60 62.36 17.57 19.92 19.92 17.57 60 57.64 100.08 17.57 102.43 19.92 60 62.36"/><path class="cls-3" d="M80,60,70,70,50,50,60,40a14.16,14.16,0,0,1,20,0h0A14.16,14.16,0,0,1,80,60Z"/><path class="cls-1" d="M70,34.17a15.82,15.82,0,0,1,11.19,27L70,72.37,47.63,50,58.82,38.8A15.72,15.72,0,0,1,70,34.17Zm0,33.49,8.83-8.83A12.49,12.49,0,0,0,61.18,41.16L52.35,50Z"/><path class="cls-1" d="M40,80h0a14.16,14.16,0,0,1,0-20L50,50,70,70,60,80A14.16,14.16,0,0,1,40,80Z"/><path class="cls-1" d="M50,47.63,72.37,70,61.18,81.2a15.82,15.82,0,0,1-22.38,0h0a15.82,15.82,0,0,1,0-22.38ZM67.65,70,50,52.35l-8.83,8.83a12.49,12.49,0,0,0,0,17.66h0a12.49,12.49,0,0,0,17.66,0Z"/><circle class="cls-1" cx="50.5" cy="69.5" r="8.33" transform="translate(-34.35 56.06) rotate(-45)"/><path class="cls-3" d="M57.57,62.43a10,10,0,1,1-14.14,0A10,10,0,0,1,57.57,62.43Zm-2.36,2.36a6.67,6.67,0,1,0,0,9.43A6.67,6.67,0,0,0,55.21,64.79Z"/><circle class="cls-3" cx="69.5" cy="50.5" r="8.33" transform="translate(-15.35 63.94) rotate(-45)"/><path class="cls-1" d="M76.57,43.43a10,10,0,1,1-14.14,0A10,10,0,0,1,76.57,43.43Zm-2.36,2.36a6.67,6.67,0,1,0,0,9.43A6.67,6.67,0,0,0,74.22,45.78Z"/><path class="cls-4" d="M140.5,72.6c0,4,3.06,7.56,8.55,7.56,5.13,0,7.38-1.44,10-4l8.82,8.82c-5,4.95-9.81,7.65-18.81,7.65-10.71,0-23-3.87-23-24.75,0-15.84,9-24.75,21.69-24.75,14,0,21.78,10.26,21.78,22.95V72.6ZM154.09,59c-.9-2.07-2.88-3.78-6.39-3.78s-5.49,1.71-6.39,3.78a8.44,8.44,0,0,0-.81,3.78h14.4A8.44,8.44,0,0,0,154.09,59Z"/><path class="cls-4" d="M181.81,72.42V58.56h29.52V72.42Z"/><path class="cls-4" d="M249,92.58a23.85,23.85,0,0,1-17.82-7.2c-6.75-6.75-6.48-15.75-6.48-25.38s-.27-18.63,6.48-25.38A23.85,23.85,0,0,1,249,27.42c12.15,0,22,6.75,24.3,20.88h-16c-1-3.6-3-6.84-8.19-6.84a7.65,7.65,0,0,0-6.21,2.7c-1.44,1.89-2.43,4.14-2.43,15.84s1,14,2.43,15.84a7.65,7.65,0,0,0,6.21,2.7c5.22,0,7.2-3.24,8.19-6.84h16C270.91,85.83,261.1,92.58,249,92.58Z"/><path class="cls-4" d="M311.23,92V62.7c0-5.22-3.78-6.3-5.67-6.3s-5.67,1.08-5.67,6.3V92H285.13V28h14.76V47.58a15,15,0,0,1,10.62-4.5C321,43.08,326,50.82,326,60.63V92Z"/><path class="cls-4" d="M364.69,92v-4c-3,3-5.67,4.41-10.8,4.41-4.86,0-8.91-1.62-11.61-4.32a15.78,15.78,0,0,1-4.23-11.34c0-7.29,5-14,16.47-14h9.81V61.53c0-4.41-2.16-6-7.29-6-3.78,0-5.4.9-7.74,3.24l-9.18-9.18c4.95-4.95,9.45-6.48,17.64-6.48,13.86,0,21.33,5.76,21.33,17.55V92Zm-.36-19.44h-7.47c-2.88,0-4.68,1.62-4.68,3.87s1.62,4,4.86,4c2.88,0,4.23-.27,5.85-1.8,1.08-1,1.44-2.52,1.44-4.86Z"/><path class="cls-4" d="M410.05,92c-10.71,0-15-7.65-15-14.31V56.85h-4.41V45.51H395V31.65h14.76V45.51h7.65V56.85h-7.65v19.8a2.66,2.66,0,0,0,3,3h4.68V92Z"/></g></g></svg>