<svg xmlns="http://www.w3.org/2000/svg" viewBox="0 0 446.39 159.03"><defs><style>.cls-1{fill:#1a1a1a;}.cls-2{fill:#00aaa0;}.cls-3{fill:#00c864;}.cls-4{fill:#fff;}</style></defs><title>pillcap_eshop</title><g id="Capa_2" data-name="Capa 2"><g id="Capa_2-2" data-name="Capa 2"><path class="cls-1" d="M0,121.67l7.92-95H32.58a28.33,28.33,0,0,1,56.57,0h24.67l3.31,39.7c1.82-18.11,14-30,31.44-30,9.46,0,17.85,3.58,23.63,10.07A30.2,30.2,0,0,1,176,51.89h38.63c0-.3,0-.59,0-.89,0-17.81,13.73-30.25,33.4-30.25,11.16,0,19.67,2.76,26.54,8.62V21.29h34.76V36.42h.62c7.92,0,14.82,3.12,19.42,8.79a25.35,25.35,0,0,1,3.59,6,28.83,28.83,0,0,1,3.91-5.35l0,0,0,0c4-4.27,11.24-9.36,22.85-9.36s18.84,5.09,22.85,9.36l0,0,0,0c.69.75,1.31,1.52,1.9,2.29V37h29.74a29,29,0,0,1,5.73-.54A26.68,26.68,0,0,1,439,43.75c7.47,7.47,7.45,18.38,7.43,26.34v2.14c0,8,0,18.88-7.43,26.34a26.56,26.56,0,0,1-18.77,7.34h-.8v15.76Z"/><polygon class="cls-2" points="103.18 37.9 109.23 110.44 12.51 110.44 18.55 37.9 103.18 37.9"/><path class="cls-1" d="M101.55,40l5.69,68.33H14.49L20.19,40h81.37m3.07-3.33H17.12l-6.25,75h100l-6.25-75Z"/><path class="cls-2" d="M79.2,36.67H75.87V28.33a15,15,0,0,0-30,0v8.33H42.53V28.33a18.33,18.33,0,0,1,36.67,0Z"/><path class="cls-3" d="M62.24,77.34l7-3.64L52.54,62.14V82.42l7-3.64,3.45,6.59a1.55,1.55,0,0,0,2.74-1.44Z"/><path class="cls-1" d="M52.54,62.14,69.2,73.7l-7,3.64,3.45,6.59a1.55,1.55,0,1,1-2.74,1.44L59.5,78.78l-7,3.64V62.14m-3.33-6.37V87.92l4.88-2.55,4-2.1L60,86.91a4.88,4.88,0,1,0,8.65-4.53l-1.9-3.63,4-2.1,4.88-2.55L71.1,71,54.44,59.4l-5.23-3.63Z"/><path class="cls-4" d="M141.37,75.93c0,4,3.06,7.56,8.55,7.56,5.13,0,7.38-1.44,10-4l8.82,8.82c-5,4.95-9.81,7.65-18.81,7.65-10.71,0-23-3.87-23-24.75,0-15.84,9-24.75,21.69-24.75,14,0,21.78,10.26,21.78,22.95v6.57ZM155,62.34c-.9-2.07-2.88-3.78-6.39-3.78s-5.49,1.71-6.39,3.78a8.43,8.43,0,0,0-.81,3.78h14.4A8.44,8.44,0,0,0,155,62.34Z"/><path class="cls-4" d="M182.68,75.75V61.89H212.2V75.75Z"/><path class="cls-4" d="M245.86,95.91c-9.81,0-17.82-1.8-24.3-8.46l10.08-10.08c3.33,3.33,9.18,4.5,14.31,4.5,6.21,0,9.18-2.07,9.18-5.76a5.35,5.35,0,0,0-1.26-3.78,7.15,7.15,0,0,0-4.23-1.71l-7.74-1.08c-5.67-.81-10-2.7-12.87-5.67s-4.41-7.38-4.41-12.87c0-11.7,8.82-20.25,23.4-20.25,9.18,0,16.11,2.16,21.6,7.65l-9.9,9.9c-4-4-9.36-3.78-12.15-3.78-5.49,0-7.74,3.15-7.74,5.94a4.22,4.22,0,0,0,1.26,3,7.2,7.2,0,0,0,4.41,1.89l7.74,1.08c5.76.81,9.9,2.61,12.6,5.31,3.42,3.33,4.77,8.1,4.77,14C270.61,88.8,259.36,95.91,245.86,95.91Z"/><path class="cls-4" d="M310.66,95.37V66c0-5.22-3.78-6.3-5.67-6.3s-5.67,1.08-5.67,6.3V95.37H284.56V31.29h14.76V50.91a15,15,0,0,1,10.62-4.5c10.44,0,15.48,7.74,15.48,17.55V95.37Z"/><path class="cls-4" d="M375.37,89.7c-2.88,3.06-7.74,6.21-15.57,6.21s-12.69-3.15-15.57-6.21c-4-4.41-5.31-9-5.31-18.54s1.26-14.13,5.31-18.54c2.88-3.06,7.74-6.21,15.57-6.21s12.69,3.15,15.57,6.21c4,4.41,5.31,9.09,5.31,18.54S379.42,85.29,375.37,89.7ZM363.76,61.08a6.48,6.48,0,0,0-7.92,0c-1.89,1.89-2.16,5.31-2.16,10.08s.27,8.19,2.16,10.08a6.48,6.48,0,0,0,7.92,0c1.89-1.89,2.16-5.31,2.16-10.08S365.65,63,363.76,61.08Z"/><path class="cls-4" d="M431.89,91.5a16.48,16.48,0,0,1-11.7,4.41c-4.77,0-8.1-1.35-10.8-4V111H394.63V47h14.31v4a14.31,14.31,0,0,1,11.16-4.5,16.7,16.7,0,0,1,11.79,4.41c4.77,4.77,4.5,13.23,4.5,20.34S436.66,86.73,431.89,91.5ZM415.51,59.73c-5.49,0-6.12,4.41-6.12,11.43s.63,11.43,6.12,11.43,6.12-4.41,6.12-11.43S421,59.73,415.51,59.73Z"/><path class="cls-1" d="M444.16,135.09a8.47,8.47,0,0,0-6.19-2.5h-9.29v9.49l-3.45-9.49H418L415.68,139a8.85,8.85,0,0,0-2.93-4.64,9.1,9.1,0,0,0-5.81-1.94,8.93,8.93,0,0,0-6.54,2.66c-2.49,2.49-2.49,5.63-2.49,8.16,0,0,0,1.33,0,1.76h-3V132.59H385V145h-4.12V132.59H362.73v2.17a8.55,8.55,0,0,0-5.86-2.17h-9.09a10.26,10.26,0,0,0-15.68-1.39l-10.3,10.3A10.27,10.27,0,0,0,336.32,156s11-11,11.25-11.4v9.88h91v-5.7a8.36,8.36,0,0,0,5.61-2.48,8.19,8.19,0,0,0,0-11.22Z"/><path class="cls-2" d="M323.92,143.61a7.28,7.28,0,0,0,0,10.3h0a7.28,7.28,0,0,0,10.3,0l5.15-5.15-10.3-10.3Z"/><path class="cls-3" d="M344.51,133.31h0a7.28,7.28,0,0,0-10.3,0l-5.15,5.15,10.3,10.3,5.15-5.15A7.28,7.28,0,0,0,344.51,133.31Z"/><path class="cls-4" d="M334.84,139.32l-.2-.2a3.49,3.49,0,0,0-4.34-.46l-.71-.71-1,1,.71.71a3.48,3.48,0,0,0,4.81,4.81l3.09,3.09a2.15,2.15,0,0,1-2.43-.43l-.2-.2-.94.94.2.2a3.49,3.49,0,0,0,4.34.46l.71.71,1-1-.71-.71a3.48,3.48,0,0,0-4.81-4.81l-3.09-3.09a2.15,2.15,0,0,1,2.43.43l.2.2Zm2.93,4.81a2.15,2.15,0,0,1,.43,2.43l-2.85-2.85A2.15,2.15,0,0,1,337.77,144.13Zm-7.1-1a2.15,2.15,0,0,1-.43-2.43l2.85,2.85A2.15,2.15,0,0,1,330.66,143.09Z"/><path class="cls-4" d="M356.87,145.82h-2.39v5.68h-3.92V135.58h6.31a5.13,5.13,0,1,1,0,10.25Zm-.18-6.74h-2.22v3.22h2.22a1.61,1.61,0,1,0,0-3.22Z"/><path class="cls-4" d="M365.71,151.51V135.58h3.92v15.93Z"/><path class="cls-4" d="M374,151.51V135.58h3.92V148h6.69v3.49Z"/><path class="cls-4" d="M388,151.51V135.58h3.92V148h6.69v3.49Z"/><path class="cls-4" d="M406.93,151.64a5.93,5.93,0,0,1-4.43-1.79c-1.68-1.68-1.61-3.92-1.61-6.31s-.07-4.63,1.61-6.31a5.93,5.93,0,0,1,4.43-1.79,5.76,5.76,0,0,1,6,5.19h-4a2,2,0,0,0-2-1.7,1.9,1.9,0,0,0-1.54.67c-.36.47-.6,1-.6,3.94s.25,3.47.6,3.94a1.9,1.9,0,0,0,1.54.67,2,2,0,0,0,2-1.7h4A5.76,5.76,0,0,1,406.93,151.64Z"/><path class="cls-4" d="M424.83,151.51l-.74-2.37h-4.9l-.78,2.37h-4.1l5.8-15.93h3l5.8,15.93Zm-3.11-9.89-1.43,4.25h2.77Z"/><path class="cls-4" d="M438,145.82h-2.39v5.68h-3.92V135.58H438a5.13,5.13,0,1,1,0,10.25Zm-.18-6.74h-2.22v3.22h2.22a1.61,1.61,0,1,0,0-3.22Z"/><path class="cls-1" d="M194.14,150.55a4.1,4.1,0,0,1-2.91,1.1,3.53,3.53,0,0,1-2.69-1v4.77h-3.67V139.47h3.56v1a3.56,3.56,0,0,1,2.77-1.12,4.15,4.15,0,0,1,2.93,1.1c1.19,1.19,1.12,3.29,1.12,5.06S195.33,149.36,194.14,150.55Zm-4.07-7.9c-1.37,0-1.52,1.1-1.52,2.84s.16,2.84,1.52,2.84,1.52-1.1,1.52-2.84S191.43,142.65,190.07,142.65Z"/><path class="cls-1" d="M205.2,143.27a1.7,1.7,0,0,0-1.32-.63,1.48,1.48,0,0,0-1.48,1.66v7.21h-3.67v-12h3.58v1a4.17,4.17,0,0,1,2.84-1.12,3.57,3.57,0,0,1,2.82,1.12Z"/><path class="cls-1" d="M218.42,150.1a5.62,5.62,0,0,1-7.74,0c-1-1.1-1.32-2.24-1.32-4.61s.31-3.51,1.32-4.61a5.62,5.62,0,0,1,7.74,0c1,1.1,1.32,2.26,1.32,4.61S219.43,149,218.42,150.1ZM215.53,143a1.61,1.61,0,0,0-2,0c-.47.47-.54,1.32-.54,2.51s.07,2,.54,2.51a1.61,1.61,0,0,0,2,0c.47-.47.54-1.32.54-2.51S216,143.45,215.53,143Z"/><path class="cls-1" d="M228.83,151.51H226l-4.43-12h3.85l2,6.24,2-6.24h3.85Z"/><path class="cls-1" d="M235.76,138.24v-2.8h3.67v2.8Zm0,13.27V139.94h3.67v11.57Z"/><path class="cls-1" d="M249.73,151.51v-1a3.56,3.56,0,0,1-2.77,1.12,4.15,4.15,0,0,1-2.93-1.1c-1.19-1.19-1.12-3.29-1.12-5.06s-.07-3.87,1.12-5.06a4.1,4.1,0,0,1,2.91-1.1,3.53,3.53,0,0,1,2.69,1v-4.77h3.67v15.93Zm-1.63-8.86c-1.37,0-1.52,1.1-1.52,2.84s.16,2.84,1.52,2.84,1.52-1.1,1.52-2.84S249.46,142.65,248.09,142.65Z"/><path class="cls-1" d="M260.24,146.68a1.93,1.93,0,0,0,2.13,1.88,3,3,0,0,0,2.48-1l2.19,2.19a5.85,5.85,0,0,1-4.68,1.9c-2.66,0-5.73-1-5.73-6.15,0-3.94,2.24-6.15,5.39-6.15,3.49,0,5.42,2.55,5.42,5.71v1.63Zm3.38-3.38a1.81,1.81,0,0,0-3.18,0,2.1,2.1,0,0,0-.2.94h3.58A2.1,2.1,0,0,0,263.62,143.3Z"/><path class="cls-1" d="M277.21,151.51v-1a3.56,3.56,0,0,1-2.77,1.12,4.15,4.15,0,0,1-2.93-1.1c-1.19-1.19-1.12-3.29-1.12-5.06s-.07-3.87,1.12-5.06a4.1,4.1,0,0,1,2.91-1.1,3.53,3.53,0,0,1,2.69,1v-4.77h3.67v15.93Zm-1.63-8.86c-1.37,0-1.52,1.1-1.52,2.84s.16,2.84,1.52,2.84,1.52-1.1,1.52-2.84S276.94,142.65,275.57,142.65Z"/><path class="cls-1" d="M300,150.55a4.15,4.15,0,0,1-2.93,1.1,3.56,3.56,0,0,1-2.77-1.12v1h-3.56V135.58h3.67v4.77a3.53,3.53,0,0,1,2.69-1,4.1,4.1,0,0,1,2.91,1.1c1.19,1.19,1.12,3.29,1.12,5.06S301.19,149.36,300,150.55Zm-4.07-7.9c-1.37,0-1.52,1.1-1.52,2.84s.16,2.84,1.52,2.84,1.52-1.1,1.52-2.84S297.3,142.65,295.93,142.65Z"/><path class="cls-1" d="M309.9,152.94a4.16,4.16,0,0,1-.94,1.59,3.48,3.48,0,0,1-2.71,1h-1.39v-3.31h.78a1.08,1.08,0,0,0,1.23-.9l.34-1-4-10.85h3.85l2,6.24,1.95-6.24h3.85Z"/></g></g></svg>