<svg xmlns="http://www.w3.org/2000/svg" viewBox="0 0 415.46 140.03"><defs><style>.cls-1{fill:#1a1a1a;}.cls-2{fill:#00aaa0;}.cls-3{fill:#00c864;}.cls-4{fill:#fff;}</style></defs><title>pillcap_wallet</title><g id="Capa_2" data-name="Capa 2"><g id="Capa_2-2" data-name="Capa 2"><path class="cls-1" d="M413.24,116.1a8.47,8.47,0,0,0-6.19-2.5h-9.29v9.49l-3.45-9.49h-7.2l-2.35,6.45a8.85,8.85,0,0,0-2.93-4.64,9.1,9.1,0,0,0-5.81-1.94,8.93,8.93,0,0,0-6.54,2.66c-2.49,2.49-2.49,5.63-2.49,8.16,0,0,0,1.33,0,1.76h-3V113.6h-9.88V126h-4.12V113.6H331.8v2.17a8.55,8.55,0,0,0-5.86-2.17h-9.09a10.26,10.26,0,0,0-15.68-1.39l-10.3,10.3A10.27,10.27,0,0,0,305.4,137s11-11,11.25-11.4v9.88h91v-5.7a8.36,8.36,0,0,0,5.61-2.48,8.19,8.19,0,0,0,0-11.22Z"/><path class="cls-2" d="M293,124.62a7.28,7.28,0,0,0,0,10.3h0a7.28,7.28,0,0,0,10.3,0l5.15-5.15-10.3-10.3Z"/><path class="cls-3" d="M313.59,114.32h0a7.28,7.28,0,0,0-10.3,0l-5.15,5.15,10.3,10.3,5.15-5.15A7.28,7.28,0,0,0,313.59,114.32Z"/><path class="cls-4" d="M303.91,120.33l-.2-.2a3.49,3.49,0,0,0-4.34-.46l-.71-.71-1,1,.71.71a3.48,3.48,0,0,0,4.81,4.81l3.09,3.09a2.15,2.15,0,0,1-2.43-.43l-.2-.2-.94.94.2.2a3.49,3.49,0,0,0,4.34.46l.71.71,1-1-.71-.71a3.48,3.48,0,0,0-4.81-4.81l-3.09-3.09a2.15,2.15,0,0,1,2.43.43l.2.2Zm2.93,4.81a2.15,2.15,0,0,1,.43,2.43l-2.85-2.85A2.15,2.15,0,0,1,306.84,125.13Zm-7.1-1a2.15,2.15,0,0,1-.43-2.43l2.85,2.85A2.15,2.15,0,0,1,299.74,124.1Z"/><path class="cls-4" d="M325.95,126.83h-2.39v5.68h-3.92V116.58h6.31a5.13,5.13,0,1,1,0,10.25Zm-.18-6.74h-2.22v3.22h2.22a1.61,1.61,0,1,0,0-3.22Z"/><path class="cls-4" d="M334.79,132.52V116.58h3.92v15.93Z"/><path class="cls-4" d="M343,132.52V116.58H347V129h6.69v3.49Z"/><path class="cls-4" d="M357.05,132.52V116.58H361V129h6.69v3.49Z"/><path class="cls-4" d="M376,132.65a5.93,5.93,0,0,1-4.43-1.79c-1.68-1.68-1.61-3.92-1.61-6.31s-.07-4.63,1.61-6.31a5.93,5.93,0,0,1,4.43-1.79,5.76,5.76,0,0,1,6,5.19h-4a2,2,0,0,0-2-1.7,1.9,1.9,0,0,0-1.54.67c-.36.47-.6,1-.6,3.94s.25,3.47.6,3.94a1.9,1.9,0,0,0,1.54.67,2,2,0,0,0,2-1.7h4A5.76,5.76,0,0,1,376,132.65Z"/><path class="cls-4" d="M393.91,132.52l-.74-2.37h-4.9l-.78,2.37h-4.1l5.8-15.93h3l5.8,15.93Zm-3.11-9.89-1.43,4.25h2.77Z"/><path class="cls-4" d="M407,126.83h-2.39v5.68h-3.92V116.58H407a5.13,5.13,0,1,1,0,10.25Zm-.18-6.74h-2.22v3.22h2.22a1.61,1.61,0,1,0,0-3.22Z"/><path class="cls-1" d="M163.21,131.55a4.1,4.1,0,0,1-2.91,1.1,3.53,3.53,0,0,1-2.69-1v4.77H154V120.48h3.56v1a3.56,3.56,0,0,1,2.77-1.12,4.15,4.15,0,0,1,2.93,1.1c1.19,1.19,1.12,3.29,1.12,5.06S164.4,130.37,163.21,131.55Zm-4.07-7.9c-1.37,0-1.52,1.1-1.52,2.84s.16,2.84,1.52,2.84,1.52-1.1,1.52-2.84S160.51,123.65,159.14,123.65Z"/><path class="cls-1" d="M174.27,124.28a1.7,1.7,0,0,0-1.32-.63,1.48,1.48,0,0,0-1.48,1.66v7.21H167.8v-12h3.58v1a4.17,4.17,0,0,1,2.84-1.12,3.57,3.57,0,0,1,2.82,1.12Z"/><path class="cls-1" d="M187.49,131.11a5.62,5.62,0,0,1-7.74,0c-1-1.1-1.32-2.24-1.32-4.61s.31-3.51,1.32-4.61a5.62,5.62,0,0,1,7.74,0c1,1.1,1.32,2.26,1.32,4.61S188.5,130,187.49,131.11ZM184.61,124a1.61,1.61,0,0,0-2,0c-.47.47-.54,1.32-.54,2.51s.07,2,.54,2.51a1.61,1.61,0,0,0,2,0c.47-.47.54-1.32.54-2.51S185.08,124.46,184.61,124Z"/><path class="cls-1" d="M197.9,132.52h-2.8l-4.43-12h3.85l2,6.24,2-6.24h3.85Z"/><path class="cls-1" d="M204.84,119.25v-2.8h3.67v2.8Zm0,13.27V120.95h3.67v11.57Z"/><path class="cls-1" d="M218.8,132.52v-1a3.56,3.56,0,0,1-2.77,1.12,4.15,4.15,0,0,1-2.93-1.1c-1.19-1.19-1.12-3.29-1.12-5.06s-.07-3.87,1.12-5.06a4.1,4.1,0,0,1,2.91-1.1,3.53,3.53,0,0,1,2.69,1v-4.77h3.67v15.93Zm-1.63-8.86c-1.37,0-1.52,1.1-1.52,2.84s.16,2.84,1.52,2.84,1.52-1.1,1.52-2.84S218.53,123.65,217.17,123.65Z"/><path class="cls-1" d="M229.32,127.68a1.93,1.93,0,0,0,2.13,1.88,3,3,0,0,0,2.48-1l2.19,2.19a5.85,5.85,0,0,1-4.68,1.9c-2.66,0-5.73-1-5.73-6.15,0-3.94,2.24-6.15,5.39-6.15,3.49,0,5.42,2.55,5.42,5.71v1.63Zm3.38-3.38a1.81,1.81,0,0,0-3.18,0,2.1,2.1,0,0,0-.2.94h3.58A2.1,2.1,0,0,0,232.7,124.3Z"/><path class="cls-1" d="M246.28,132.52v-1a3.56,3.56,0,0,1-2.77,1.12,4.15,4.15,0,0,1-2.93-1.1c-1.19-1.19-1.12-3.29-1.12-5.06s-.07-3.87,1.12-5.06a4.1,4.1,0,0,1,2.91-1.1,3.53,3.53,0,0,1,2.69,1v-4.77h3.67v15.93Zm-1.63-8.86c-1.37,0-1.52,1.1-1.52,2.84s.16,2.84,1.52,2.84,1.52-1.1,1.52-2.84S246,123.65,244.64,123.65Z"/><path class="cls-1" d="M269.08,131.55a4.15,4.15,0,0,1-2.93,1.1,3.56,3.56,0,0,1-2.77-1.12v1h-3.56V116.58h3.67v4.77a3.53,3.53,0,0,1,2.69-1,4.1,4.1,0,0,1,2.91,1.1c1.19,1.19,1.12,3.29,1.12,5.06S270.27,130.37,269.08,131.55Zm-4.07-7.9c-1.37,0-1.52,1.1-1.52,2.84s.16,2.84,1.52,2.84,1.52-1.1,1.52-2.84S266.37,123.65,265,123.65Z"/><path class="cls-1" d="M279,133.95a4.16,4.16,0,0,1-.94,1.59,3.48,3.48,0,0,1-2.71,1h-1.39v-3.31h.78a1.08,1.08,0,0,0,1.23-.9l.34-1-4-10.85h3.85l2,6.24,1.95-6.24H284Z"/><path class="cls-1" d="M415.46,101.77V71.87h-8.28V65.14h8.28V36.23h-8.28V22.37h-31.7V36.23h-4.95v7.09c-5.36-5.67-12.94-9-21.86-9-13.77,0-24.12,7.81-28.34,20.4V17.69h-31.7V71.87h-2.05V17.69h-31.7V47.17a23,23,0,0,0-5.35-6.38c-5.18-4.28-12.35-6.45-21.28-6.45-5.16,0-10.52.5-15.76,3.14l5.31-19.78H183.88L181,29.51l-3.42-11.82H153.15l-3.38,11.67-2.86-11.67H120V0H0V120H120V101.67Z"/><rect class="cls-2" x="10.83" y="10.83" width="98.33" height="98.33"/><path class="cls-1" d="M106.67,13.33v93.33H13.33V13.33h93.33M110,10H10V110H110V10Z"/><rect class="cls-3" x="92.17" y="11.17" width="10.67" height="97.67" transform="translate(195 120) rotate(180)"/><path class="cls-1" d="M100.42,13.33v93.33H94.58V13.33h5.83M103.75,10H91.25V110h12.5V10Z"/><rect class="cls-2" x="44.17" y="43.75" width="65" height="32.5" rx="16.25" ry="16.25"/><path class="cls-1" d="M93.33,46.67a13.33,13.33,0,1,1,0,26.67H60a13.33,13.33,0,0,1,0-26.67H93.33m0-3.33H60a16.67,16.67,0,0,0,0,33.33H93.33a16.67,16.67,0,1,0,0-33.33Z"/><circle class="cls-3" cx="60" cy="60" r="8.33"/><path class="cls-1" d="M60,55a5,5,0,1,1-5,5,5,5,0,0,1,5-5m0-3.33A8.33,8.33,0,1,0,68.33,60,8.33,8.33,0,0,0,60,51.67Z"/><path class="cls-4" d="M187.57,91.77H177.13L165.34,52.89,153.55,91.77H143.11L126,27.69h13L149,68.1l11.7-40.41H170l11.7,40.41,10-40.41h13Z"/><path class="cls-4" d="M236.8,91.77v-4c-3.15,3.15-6.12,4.5-11.52,4.5s-9.18-1.35-12-4.14a15,15,0,0,1-3.87-10.53c0-7.47,5.13-13.59,16-13.59h11.07V61.62c0-5.13-2.52-7.38-8.73-7.38-4.5,0-6.57,1.08-9,3.87l-7.47-7.29c4.59-5,9.09-6.48,16.92-6.48,13.14,0,20,5.58,20,16.56V91.77ZM236.53,72h-9.27c-4.23,0-6.57,2-6.57,5.31s2.16,5.4,6.75,5.4c3.24,0,5.31-.27,7.38-2.25,1.26-1.17,1.71-3.06,1.71-5.94Z"/><path class="cls-4" d="M278.56,91.77c-9.63,0-13.68-6.75-13.68-13.41V27.69h11.7V77.64c0,2.79,1.17,4.23,4.14,4.23h4.5v9.9Z"/><path class="cls-4" d="M312.31,91.77c-9.63,0-13.68-6.75-13.68-13.41V27.69h11.7V77.64c0,2.79,1.17,4.23,4.14,4.23H319v9.9Z"/><path class="cls-4" d="M339.76,72c0,6,3.69,10.44,10.26,10.44,5.13,0,7.65-1.44,10.62-4.41l7.11,6.93c-4.77,4.77-9.36,7.38-17.82,7.38-11.07,0-21.69-5-21.69-24,0-15.3,8.28-23.94,20.43-23.94,13,0,20.43,9.54,20.43,22.41V72Zm16.74-13a8.74,8.74,0,0,0-15.66,0,12.94,12.94,0,0,0-1.08,5h17.82A12.91,12.91,0,0,0,356.5,58.92Z"/><path class="cls-4" d="M399.07,91.77c-9.54,0-13.59-6.75-13.59-13.41V55.14h-4.95V46.23h4.95V32.37h11.7V46.23h8.28v8.91h-8.28v22.5c0,2.7,1.26,4.23,4,4.23h4.23v9.9Z"/></g></g></svg>